<mxfile host="app.diagrams.net" agent="Mozilla/5.0 (Windows NT 10.0; Win64; x64) AppleWebKit/537.36 (KHTML, like Gecko) Chrome/127.0.0.0 Safari/537.36" version="24.7.6">
  <diagram name="Page-1" id="mgC9e5qjmAwoKRIY1v-7">
    <mxGraphModel dx="1030" dy="522" grid="1" gridSize="10" guides="1" tooltips="1" connect="1" arrows="1" fold="1" page="1" pageScale="1" pageWidth="827" pageHeight="1169" math="0" shadow="0">
      <root>
        <mxCell id="0" />
        <mxCell id="1" parent="0" />
        <mxCell id="By6zcme9NYei71oMtfFU-1" value="" style="outlineConnect=0;dashed=0;verticalLabelPosition=bottom;verticalAlign=top;align=center;html=1;shape=mxgraph.aws3.management_console;rounded=1;fillColor=#a20025;strokeColor=#6F0000;fontColor=#ffffff;" vertex="1" parent="1">
          <mxGeometry x="95" y="266" width="63" height="63" as="geometry" />
        </mxCell>
        <mxCell id="By6zcme9NYei71oMtfFU-10" value="Gateway Server" style="text;html=1;align=center;verticalAlign=middle;whiteSpace=wrap;rounded=0;fontStyle=1" vertex="1" parent="1">
          <mxGeometry x="206.88" y="330" width="98.75" height="30" as="geometry" />
        </mxCell>
        <mxCell id="By6zcme9NYei71oMtfFU-11" value="&lt;b&gt;Browser&lt;/b&gt;" style="text;html=1;align=center;verticalAlign=middle;whiteSpace=wrap;rounded=0;" vertex="1" parent="1">
          <mxGeometry x="96.5" y="330" width="60" height="30" as="geometry" />
        </mxCell>
        <mxCell id="By6zcme9NYei71oMtfFU-12" value="" style="shape=image;html=1;verticalAlign=top;verticalLabelPosition=bottom;labelBackgroundColor=#ffffff;imageAspect=0;aspect=fixed;image=https://cdn2.iconfinder.com/data/icons/gnomeicontheme/48x48/apps/gnome-server-config.png;rounded=1;" vertex="1" parent="1">
          <mxGeometry x="340" y="30" width="62" height="62" as="geometry" />
        </mxCell>
        <mxCell id="By6zcme9NYei71oMtfFU-13" value="Config Server" style="text;html=1;align=center;verticalAlign=middle;whiteSpace=wrap;rounded=0;fontStyle=1;" vertex="1" parent="1">
          <mxGeometry x="317" y="5" width="110" height="30" as="geometry" />
        </mxCell>
        <mxCell id="By6zcme9NYei71oMtfFU-38" style="edgeStyle=orthogonalEdgeStyle;rounded=1;orthogonalLoop=1;jettySize=auto;html=1;entryX=0.5;entryY=0;entryDx=0;entryDy=0;" edge="1" parent="1" source="By6zcme9NYei71oMtfFU-15" target="By6zcme9NYei71oMtfFU-33">
          <mxGeometry relative="1" as="geometry" />
        </mxCell>
        <mxCell id="By6zcme9NYei71oMtfFU-15" value="" style="sketch=0;outlineConnect=0;fontColor=#232F3E;gradientColor=none;fillColor=#232F3D;strokeColor=none;dashed=0;verticalLabelPosition=bottom;verticalAlign=top;align=center;html=1;fontSize=12;fontStyle=0;aspect=fixed;pointerEvents=1;shape=mxgraph.aws4.traditional_server;rounded=1;" vertex="1" parent="1">
          <mxGeometry x="234" y="150.51999999999998" width="33.13" height="57.43" as="geometry" />
        </mxCell>
        <mxCell id="By6zcme9NYei71oMtfFU-16" value="Eureka Server" style="text;html=1;align=center;verticalAlign=middle;whiteSpace=wrap;rounded=0;fontStyle=1" vertex="1" parent="1">
          <mxGeometry x="198.13" y="122.57" width="107.5" height="30" as="geometry" />
        </mxCell>
        <mxCell id="By6zcme9NYei71oMtfFU-23" value="" style="sketch=0;aspect=fixed;pointerEvents=1;shadow=0;dashed=0;html=1;strokeColor=none;labelPosition=center;verticalLabelPosition=bottom;verticalAlign=top;align=center;fillColor=#00188D;shape=mxgraph.mscae.enterprise.application_server2;rounded=1;" vertex="1" parent="1">
          <mxGeometry x="502" y="121.63" width="33" height="38.37" as="geometry" />
        </mxCell>
        <mxCell id="By6zcme9NYei71oMtfFU-24" value="" style="sketch=0;aspect=fixed;pointerEvents=1;shadow=0;dashed=0;html=1;strokeColor=none;labelPosition=center;verticalLabelPosition=bottom;verticalAlign=top;align=center;fillColor=#00188D;shape=mxgraph.mscae.enterprise.application_server2;rounded=1;" vertex="1" parent="1">
          <mxGeometry x="502" y="214.95" width="31" height="36.05" as="geometry" />
        </mxCell>
        <mxCell id="By6zcme9NYei71oMtfFU-25" value="" style="sketch=0;aspect=fixed;pointerEvents=1;shadow=0;dashed=0;html=1;strokeColor=none;labelPosition=center;verticalLabelPosition=bottom;verticalAlign=top;align=center;fillColor=#00188D;shape=mxgraph.mscae.enterprise.application_server2;rounded=1;" vertex="1" parent="1">
          <mxGeometry x="500" y="286.47" width="34.86" height="40.53" as="geometry" />
        </mxCell>
        <mxCell id="By6zcme9NYei71oMtfFU-26" value="User&amp;nbsp;&lt;span style=&quot;background-color: initial;&quot;&gt;Service&lt;/span&gt;" style="text;html=1;align=left;verticalAlign=middle;whiteSpace=wrap;rounded=0;fontStyle=1;fontSize=10;" vertex="1" parent="1">
          <mxGeometry x="498" y="162" width="110" height="18" as="geometry" />
        </mxCell>
        <mxCell id="By6zcme9NYei71oMtfFU-27" value="Enrollment Service" style="text;html=1;align=left;verticalAlign=middle;whiteSpace=wrap;rounded=0;fontStyle=1;fontSize=10;" vertex="1" parent="1">
          <mxGeometry x="499" y="251" width="110" height="19" as="geometry" />
        </mxCell>
        <mxCell id="By6zcme9NYei71oMtfFU-28" value="Attendence Service" style="text;html=1;align=left;verticalAlign=middle;whiteSpace=wrap;rounded=0;fontStyle=1;fontSize=10;" vertex="1" parent="1">
          <mxGeometry x="498" y="331" width="110" height="19" as="geometry" />
        </mxCell>
        <mxCell id="By6zcme9NYei71oMtfFU-29" value="Fees&amp;nbsp;&lt;span style=&quot;background-color: initial;&quot;&gt;Service&lt;/span&gt;" style="text;html=1;align=left;verticalAlign=middle;whiteSpace=wrap;rounded=0;fontStyle=1;fontSize=10;" vertex="1" parent="1">
          <mxGeometry x="497" y="412" width="110" height="18" as="geometry" />
        </mxCell>
        <mxCell id="By6zcme9NYei71oMtfFU-30" value="" style="sketch=0;aspect=fixed;pointerEvents=1;shadow=0;dashed=0;html=1;strokeColor=none;labelPosition=center;verticalLabelPosition=bottom;verticalAlign=top;align=center;fillColor=#00188D;shape=mxgraph.mscae.enterprise.application_server2;rounded=1;" vertex="1" parent="1">
          <mxGeometry x="497" y="367" width="38.7" height="45" as="geometry" />
        </mxCell>
        <mxCell id="By6zcme9NYei71oMtfFU-33" value="" style="image;html=1;image=img/lib/clip_art/computers/Server_Rack_128x128.png;rounded=1;" vertex="1" parent="1">
          <mxGeometry x="210.57" y="256.74" width="80" height="80" as="geometry" />
        </mxCell>
        <mxCell id="By6zcme9NYei71oMtfFU-34" value="" style="endArrow=classic;startArrow=classic;html=1;rounded=1;entryX=0.005;entryY=0.728;entryDx=0;entryDy=0;entryPerimeter=0;exitX=1;exitY=0.5;exitDx=0;exitDy=0;fillColor=#ffe6cc;strokeColor=#d79b00;" edge="1" parent="1" source="By6zcme9NYei71oMtfFU-33" target="By6zcme9NYei71oMtfFU-23">
          <mxGeometry width="50" height="50" relative="1" as="geometry">
            <mxPoint x="300" y="280" as="sourcePoint" />
            <mxPoint x="350" y="230" as="targetPoint" />
          </mxGeometry>
        </mxCell>
        <mxCell id="By6zcme9NYei71oMtfFU-35" value="" style="endArrow=classic;startArrow=classic;html=1;rounded=1;entryX=0;entryY=1;entryDx=0;entryDy=0;entryPerimeter=0;exitX=1;exitY=0.5;exitDx=0;exitDy=0;fillColor=#ffe6cc;strokeColor=#d79b00;" edge="1" parent="1" source="By6zcme9NYei71oMtfFU-33" target="By6zcme9NYei71oMtfFU-30">
          <mxGeometry width="50" height="50" relative="1" as="geometry">
            <mxPoint x="300" y="280" as="sourcePoint" />
            <mxPoint x="350" y="230" as="targetPoint" />
          </mxGeometry>
        </mxCell>
        <mxCell id="By6zcme9NYei71oMtfFU-36" value="" style="endArrow=classic;startArrow=classic;html=1;rounded=1;entryX=0;entryY=1;entryDx=0;entryDy=0;entryPerimeter=0;exitX=1;exitY=0.5;exitDx=0;exitDy=0;fillColor=#ffe6cc;strokeColor=#d79b00;" edge="1" parent="1" source="By6zcme9NYei71oMtfFU-33" target="By6zcme9NYei71oMtfFU-25">
          <mxGeometry width="50" height="50" relative="1" as="geometry">
            <mxPoint x="300" y="280" as="sourcePoint" />
            <mxPoint x="350" y="230" as="targetPoint" />
          </mxGeometry>
        </mxCell>
        <mxCell id="By6zcme9NYei71oMtfFU-37" value="" style="endArrow=classic;startArrow=classic;html=1;rounded=1;exitX=1;exitY=0.5;exitDx=0;exitDy=0;fillColor=#ffe6cc;strokeColor=#d79b00;" edge="1" parent="1" source="By6zcme9NYei71oMtfFU-33" target="By6zcme9NYei71oMtfFU-24">
          <mxGeometry width="50" height="50" relative="1" as="geometry">
            <mxPoint x="300" y="280" as="sourcePoint" />
            <mxPoint x="350" y="230" as="targetPoint" />
          </mxGeometry>
        </mxCell>
        <mxCell id="By6zcme9NYei71oMtfFU-41" value="" style="endArrow=classic;html=1;rounded=1;exitX=0.5;exitY=1;exitDx=0;exitDy=0;fillColor=#d5e8d4;strokeColor=#82b366;" edge="1" parent="1" source="By6zcme9NYei71oMtfFU-12" target="By6zcme9NYei71oMtfFU-15">
          <mxGeometry width="50" height="50" relative="1" as="geometry">
            <mxPoint x="300" y="200" as="sourcePoint" />
            <mxPoint x="350" y="150" as="targetPoint" />
          </mxGeometry>
        </mxCell>
        <mxCell id="By6zcme9NYei71oMtfFU-44" value="" style="endArrow=classic;html=1;rounded=1;exitX=0.5;exitY=1;exitDx=0;exitDy=0;entryX=0.02;entryY=0.01;entryDx=0;entryDy=0;entryPerimeter=0;fillColor=#d5e8d4;strokeColor=#82b366;" edge="1" parent="1" source="By6zcme9NYei71oMtfFU-12" target="By6zcme9NYei71oMtfFU-30">
          <mxGeometry width="50" height="50" relative="1" as="geometry">
            <mxPoint x="300" y="200" as="sourcePoint" />
            <mxPoint x="350" y="150" as="targetPoint" />
          </mxGeometry>
        </mxCell>
        <mxCell id="By6zcme9NYei71oMtfFU-45" value="" style="endArrow=classic;html=1;rounded=1;exitX=0.5;exitY=1;exitDx=0;exitDy=0;entryX=0.02;entryY=0.01;entryDx=0;entryDy=0;entryPerimeter=0;fillColor=#d5e8d4;strokeColor=#82b366;" edge="1" parent="1" source="By6zcme9NYei71oMtfFU-12" target="By6zcme9NYei71oMtfFU-25">
          <mxGeometry width="50" height="50" relative="1" as="geometry">
            <mxPoint x="300" y="200" as="sourcePoint" />
            <mxPoint x="350" y="150" as="targetPoint" />
          </mxGeometry>
        </mxCell>
        <mxCell id="By6zcme9NYei71oMtfFU-46" value="" style="endArrow=classic;html=1;rounded=1;exitX=0.5;exitY=1;exitDx=0;exitDy=0;entryX=0.02;entryY=0.01;entryDx=0;entryDy=0;entryPerimeter=0;fillColor=#d5e8d4;strokeColor=#82b366;" edge="1" parent="1" source="By6zcme9NYei71oMtfFU-12" target="By6zcme9NYei71oMtfFU-24">
          <mxGeometry width="50" height="50" relative="1" as="geometry">
            <mxPoint x="580" y="117.57" as="sourcePoint" />
            <mxPoint x="630" y="67.57" as="targetPoint" />
          </mxGeometry>
        </mxCell>
        <mxCell id="By6zcme9NYei71oMtfFU-47" value="" style="endArrow=classic;html=1;rounded=1;exitX=0.5;exitY=1;exitDx=0;exitDy=0;entryX=0.02;entryY=0.01;entryDx=0;entryDy=0;entryPerimeter=0;fillColor=#d5e8d4;strokeColor=#82b366;" edge="1" parent="1" source="By6zcme9NYei71oMtfFU-12" target="By6zcme9NYei71oMtfFU-23">
          <mxGeometry width="50" height="50" relative="1" as="geometry">
            <mxPoint x="590" y="92" as="sourcePoint" />
            <mxPoint x="640" y="42" as="targetPoint" />
          </mxGeometry>
        </mxCell>
        <mxCell id="By6zcme9NYei71oMtfFU-48" value="" style="endArrow=classic;html=1;rounded=1;entryX=0.673;entryY=0.04;entryDx=0;entryDy=0;entryPerimeter=0;exitX=0.5;exitY=1;exitDx=0;exitDy=0;fillColor=#d5e8d4;strokeColor=#82b366;" edge="1" parent="1" source="By6zcme9NYei71oMtfFU-12" target="By6zcme9NYei71oMtfFU-33">
          <mxGeometry width="50" height="50" relative="1" as="geometry">
            <mxPoint x="350" y="190" as="sourcePoint" />
            <mxPoint x="400" y="140" as="targetPoint" />
          </mxGeometry>
        </mxCell>
        <mxCell id="By6zcme9NYei71oMtfFU-51" value="&lt;span style=&quot;font-size: 10px;&quot;&gt;User&lt;/span&gt;&lt;div style=&quot;font-size: 10px;&quot;&gt;&lt;span style=&quot;font-size: 10px;&quot;&gt;Service&lt;/span&gt;&lt;/div&gt;&lt;div style=&quot;font-size: 10px;&quot;&gt;&lt;span style=&quot;font-size: 10px;&quot;&gt;Database&lt;/span&gt;&lt;/div&gt;" style="text;html=1;align=left;verticalAlign=middle;whiteSpace=wrap;rounded=0;fontSize=10;fontStyle=1" vertex="1" parent="1">
          <mxGeometry x="720" y="132" width="60" height="30" as="geometry" />
        </mxCell>
        <mxCell id="By6zcme9NYei71oMtfFU-52" value="" style="endArrow=classic;startArrow=classic;html=1;rounded=1;entryX=1;entryY=0.62;entryDx=0;entryDy=0;entryPerimeter=0;fillColor=#1ba1e2;strokeColor=#006EAF;" edge="1" parent="1" source="By6zcme9NYei71oMtfFU-70" target="By6zcme9NYei71oMtfFU-23">
          <mxGeometry width="50" height="50" relative="1" as="geometry">
            <mxPoint x="710" y="266" as="sourcePoint" />
            <mxPoint x="350" y="250" as="targetPoint" />
          </mxGeometry>
        </mxCell>
        <mxCell id="By6zcme9NYei71oMtfFU-53" value="" style="endArrow=classic;startArrow=classic;html=1;rounded=1;entryX=0.57;entryY=0.5;entryDx=0;entryDy=0;entryPerimeter=0;exitX=0;exitY=0.5;exitDx=0;exitDy=0;exitPerimeter=0;fillColor=#1ba1e2;strokeColor=#006EAF;" edge="1" parent="1" source="By6zcme9NYei71oMtfFU-69" target="By6zcme9NYei71oMtfFU-24">
          <mxGeometry width="50" height="50" relative="1" as="geometry">
            <mxPoint x="710" y="266" as="sourcePoint" />
            <mxPoint x="350" y="250" as="targetPoint" />
          </mxGeometry>
        </mxCell>
        <mxCell id="By6zcme9NYei71oMtfFU-54" value="" style="endArrow=classic;startArrow=classic;html=1;rounded=1;entryX=0.809;entryY=0.645;entryDx=0;entryDy=0;entryPerimeter=0;fillColor=#1ba1e2;strokeColor=#006EAF;" edge="1" parent="1" source="By6zcme9NYei71oMtfFU-67" target="By6zcme9NYei71oMtfFU-25">
          <mxGeometry width="50" height="50" relative="1" as="geometry">
            <mxPoint x="710" y="266" as="sourcePoint" />
            <mxPoint x="350" y="250" as="targetPoint" />
          </mxGeometry>
        </mxCell>
        <mxCell id="By6zcme9NYei71oMtfFU-55" value="" style="endArrow=classic;startArrow=classic;html=1;rounded=1;entryX=1;entryY=0.62;entryDx=0;entryDy=0;entryPerimeter=0;exitX=0;exitY=0.5;exitDx=0;exitDy=0;exitPerimeter=0;fillColor=#1ba1e2;strokeColor=#006EAF;" edge="1" parent="1" source="By6zcme9NYei71oMtfFU-63" target="By6zcme9NYei71oMtfFU-30">
          <mxGeometry width="50" height="50" relative="1" as="geometry">
            <mxPoint x="710" y="246" as="sourcePoint" />
            <mxPoint x="350" y="230" as="targetPoint" />
          </mxGeometry>
        </mxCell>
        <mxCell id="By6zcme9NYei71oMtfFU-56" value="" style="endArrow=classic;html=1;rounded=1;exitX=0;exitY=0.5;exitDx=0;exitDy=0;exitPerimeter=0;fillColor=#d80073;strokeColor=#A50040;entryX=0.962;entryY=0.604;entryDx=0;entryDy=0;entryPerimeter=0;" edge="1" parent="1" source="By6zcme9NYei71oMtfFU-23" target="By6zcme9NYei71oMtfFU-15">
          <mxGeometry width="50" height="50" relative="1" as="geometry">
            <mxPoint x="300" y="200" as="sourcePoint" />
            <mxPoint x="270" y="190" as="targetPoint" />
          </mxGeometry>
        </mxCell>
        <mxCell id="By6zcme9NYei71oMtfFU-58" value="" style="endArrow=classic;html=1;rounded=1;exitX=0;exitY=0.5;exitDx=0;exitDy=0;exitPerimeter=0;fillColor=#d80073;strokeColor=#A50040;entryX=0.962;entryY=0.566;entryDx=0;entryDy=0;entryPerimeter=0;" edge="1" parent="1" source="By6zcme9NYei71oMtfFU-30" target="By6zcme9NYei71oMtfFU-15">
          <mxGeometry width="50" height="50" relative="1" as="geometry">
            <mxPoint x="300" y="200" as="sourcePoint" />
            <mxPoint x="240" y="190" as="targetPoint" />
          </mxGeometry>
        </mxCell>
        <mxCell id="By6zcme9NYei71oMtfFU-59" value="" style="endArrow=classic;html=1;rounded=1;exitX=0;exitY=0.5;exitDx=0;exitDy=0;exitPerimeter=0;fillColor=#d80073;strokeColor=#A50040;" edge="1" parent="1" source="By6zcme9NYei71oMtfFU-25" target="By6zcme9NYei71oMtfFU-15">
          <mxGeometry width="50" height="50" relative="1" as="geometry">
            <mxPoint x="300" y="200" as="sourcePoint" />
            <mxPoint x="270" y="190" as="targetPoint" />
          </mxGeometry>
        </mxCell>
        <mxCell id="By6zcme9NYei71oMtfFU-60" value="" style="endArrow=classic;html=1;rounded=1;exitX=0;exitY=0.5;exitDx=0;exitDy=0;exitPerimeter=0;fillColor=#d80073;strokeColor=#A50040;" edge="1" parent="1" source="By6zcme9NYei71oMtfFU-24" target="By6zcme9NYei71oMtfFU-15">
          <mxGeometry width="50" height="50" relative="1" as="geometry">
            <mxPoint x="300" y="200" as="sourcePoint" />
            <mxPoint x="350" y="150" as="targetPoint" />
          </mxGeometry>
        </mxCell>
        <mxCell id="By6zcme9NYei71oMtfFU-61" value="" style="endArrow=classic;startArrow=classic;html=1;rounded=1;" edge="1" parent="1" source="By6zcme9NYei71oMtfFU-1" target="By6zcme9NYei71oMtfFU-33">
          <mxGeometry width="50" height="50" relative="1" as="geometry">
            <mxPoint x="300" y="300" as="sourcePoint" />
            <mxPoint x="350" y="250" as="targetPoint" />
          </mxGeometry>
        </mxCell>
        <mxCell id="By6zcme9NYei71oMtfFU-63" value="" style="outlineConnect=0;dashed=0;verticalLabelPosition=bottom;verticalAlign=top;align=center;html=1;shape=mxgraph.aws3.mysql_db_instance;fillColor=#2E73B8;gradientColor=none;rounded=1;" vertex="1" parent="1">
          <mxGeometry x="667" y="370" width="40" height="53" as="geometry" />
        </mxCell>
        <mxCell id="By6zcme9NYei71oMtfFU-67" value="" style="outlineConnect=0;dashed=0;verticalLabelPosition=bottom;verticalAlign=top;align=center;html=1;shape=mxgraph.aws3.mysql_db_instance;fillColor=#2E73B8;gradientColor=none;rounded=1;" vertex="1" parent="1">
          <mxGeometry x="667" y="288.24" width="40" height="53" as="geometry" />
        </mxCell>
        <mxCell id="By6zcme9NYei71oMtfFU-69" value="" style="outlineConnect=0;dashed=0;verticalLabelPosition=bottom;verticalAlign=top;align=center;html=1;shape=mxgraph.aws3.mysql_db_instance;fillColor=#2E73B8;gradientColor=none;rounded=1;" vertex="1" parent="1">
          <mxGeometry x="667" y="207.95" width="40" height="53" as="geometry" />
        </mxCell>
        <mxCell id="By6zcme9NYei71oMtfFU-70" value="" style="outlineConnect=0;dashed=0;verticalLabelPosition=bottom;verticalAlign=top;align=center;html=1;shape=mxgraph.aws3.mysql_db_instance;fillColor=#2E73B8;gradientColor=none;rounded=1;" vertex="1" parent="1">
          <mxGeometry x="667" y="120.31" width="40" height="53" as="geometry" />
        </mxCell>
        <mxCell id="By6zcme9NYei71oMtfFU-71" value="&lt;span style=&quot;font-size: 10px;&quot;&gt;Enrollment&lt;/span&gt;&lt;br style=&quot;font-size: 10px;&quot;&gt;&lt;div style=&quot;font-size: 10px;&quot;&gt;&lt;span style=&quot;font-size: 10px;&quot;&gt;Service&lt;/span&gt;&lt;/div&gt;&lt;div style=&quot;font-size: 10px;&quot;&gt;&lt;span style=&quot;font-size: 10px;&quot;&gt;Database&lt;/span&gt;&lt;/div&gt;" style="text;html=1;align=left;verticalAlign=middle;whiteSpace=wrap;rounded=0;fontSize=10;fontStyle=1" vertex="1" parent="1">
          <mxGeometry x="720" y="214.95" width="60" height="30" as="geometry" />
        </mxCell>
        <mxCell id="By6zcme9NYei71oMtfFU-72" value="&lt;span style=&quot;font-size: 10px;&quot;&gt;Attendence&lt;/span&gt;&lt;br style=&quot;font-size: 10px;&quot;&gt;&lt;div style=&quot;font-size: 10px;&quot;&gt;&lt;span style=&quot;font-size: 10px;&quot;&gt;Service&lt;/span&gt;&lt;/div&gt;&lt;div style=&quot;font-size: 10px;&quot;&gt;&lt;span style=&quot;font-size: 10px;&quot;&gt;Database&lt;/span&gt;&lt;/div&gt;" style="text;html=1;align=left;verticalAlign=middle;whiteSpace=wrap;rounded=0;fontSize=10;fontStyle=1" vertex="1" parent="1">
          <mxGeometry x="720" y="314.74" width="60" height="30" as="geometry" />
        </mxCell>
        <mxCell id="By6zcme9NYei71oMtfFU-73" value="&lt;span style=&quot;font-size: 10px;&quot;&gt;Fees&lt;/span&gt;&lt;br style=&quot;font-size: 10px;&quot;&gt;&lt;div style=&quot;font-size: 10px;&quot;&gt;&lt;span style=&quot;font-size: 10px;&quot;&gt;Service&lt;/span&gt;&lt;/div&gt;&lt;div style=&quot;font-size: 10px;&quot;&gt;&lt;span style=&quot;font-size: 10px;&quot;&gt;Database&lt;/span&gt;&lt;/div&gt;" style="text;html=1;align=left;verticalAlign=middle;whiteSpace=wrap;rounded=0;fontSize=10;fontStyle=1" vertex="1" parent="1">
          <mxGeometry x="720" y="381.5" width="60" height="30" as="geometry" />
        </mxCell>
      </root>
    </mxGraphModel>
  </diagram>
</mxfile>
